<svg xmlns="http://www.w3.org/2000/svg" width="789" height="130" viewBox="0 0 789 130">
  <defs>
    <style>
      .cls-1 {
        fill: #fff;
      }
    </style>
  </defs>
  <path id="Subtraction_1" data-name="Subtraction 1" class="cls-1" d="M789,130H0V0H789V130ZM412.7,6.58a74.647,74.647,0,0,0-12.79,1.06,59.86,59.86,0,0,0-11.49,3.18,56.166,56.166,0,0,0-10.04,5.11,50.245,50.245,0,0,0-15.2,15.34,55.932,55.932,0,0,0-5,10.03,61.078,61.078,0,0,0-3.09,11.38,74.144,74.144,0,0,0-1.03,12.539,71.588,71.588,0,0,0,1.05,12.42,60.342,60.342,0,0,0,3.15,11.34,58.324,58.324,0,0,0,5.03,10.03,51.577,51.577,0,0,0,14.93,15.35,55.32,55.32,0,0,0,20.6,8.35,65.258,65.258,0,0,0,11.96,1.07,107.262,107.262,0,0,0,13.2-.76,72.828,72.828,0,0,0,11.4-2.32,61.706,61.706,0,0,0,10-3.88,63.986,63.986,0,0,0,9-5.44v-44h-35.2v8.8a2.884,2.884,0,0,0,.92,2.16,3.4,3.4,0,0,0,2.44.88H440.3V104.5c-2.02,1.063-4.066,2.018-6.079,2.84a50.056,50.056,0,0,1-6.48,2.12,54.41,54.41,0,0,1-7.32,1.32,76.3,76.3,0,0,1-8.52.44,44.871,44.871,0,0,1-16.96-3.12,37.622,37.622,0,0,1-13.28-9.04,41.164,41.164,0,0,1-8.681-14.44,57.128,57.128,0,0,1-3.08-19.4,56.2,56.2,0,0,1,2.96-18.76,40.174,40.174,0,0,1,8.48-14.24,37.226,37.226,0,0,1,13.36-9.04,46.708,46.708,0,0,1,17.519-3.16,55.513,55.513,0,0,1,11.48,1.04,48.774,48.774,0,0,1,8.4,2.52,38.528,38.528,0,0,1,6.04,3.08c1.655,1.067,3.162,1.983,4.48,2.72a5.694,5.694,0,0,0,2.8.88,4.063,4.063,0,0,0,3.52-2.16l4.4-7.04a56.7,56.7,0,0,0-7.92-6.04,50.713,50.713,0,0,0-9.24-4.56,59.33,59.33,0,0,0-10.84-2.88A75.311,75.311,0,0,0,412.7,6.58ZM225.66,99.38a3.665,3.665,0,0,0-2.039.6,5.9,5.9,0,0,0-1.561,1.48l-4.479,7.36a47.783,47.783,0,0,0,15.639,10.92,46.424,46.424,0,0,0,9.651,3.03,54.572,54.572,0,0,0,10.63,1.01,44.64,44.64,0,0,0,16.28-2.8,35.173,35.173,0,0,0,12.08-7.68,32.707,32.707,0,0,0,7.48-11.48A38.89,38.89,0,0,0,291.9,87.7a27.556,27.556,0,0,0-2.36-12,25.465,25.465,0,0,0-6.24-8.24,35.6,35.6,0,0,0-8.8-5.559c-3.265-1.46-6.656-2.793-10.08-3.96-3.361-1.146-6.752-2.291-10.08-3.4a48.062,48.062,0,0,1-8.8-3.88,20.442,20.442,0,0,1-6.24-5.4,13,13,0,0,1-2.36-7.96,17.974,17.974,0,0,1,1.36-7,15.659,15.659,0,0,1,4.04-5.639,19.646,19.646,0,0,1,6.68-3.8,27.9,27.9,0,0,1,9.2-1.4,28.72,28.72,0,0,1,9.4,1.36,37.251,37.251,0,0,1,6.639,3,50.417,50.417,0,0,1,4.56,3,5.566,5.566,0,0,0,3.16,1.36,3.386,3.386,0,0,0,2.08-.6,6.209,6.209,0,0,0,1.52-1.8l3.76-7.36a40.538,40.538,0,0,0-13.84-8.8,48.752,48.752,0,0,0-17.52-3.04,40.783,40.783,0,0,0-15.16,2.64,33.307,33.307,0,0,0-11.08,7.04,30.561,30.561,0,0,0-9.2,21.84,30.776,30.776,0,0,0,2.36,12.76,25.84,25.84,0,0,0,6.2,8.6,32.891,32.891,0,0,0,8.76,5.6,102.207,102.207,0,0,0,10.08,3.8c3.148,1,6.54,2.077,10.08,3.2a43.5,43.5,0,0,1,8.76,3.8,19.647,19.647,0,0,1,6.2,5.559,14.432,14.432,0,0,1,2.361,8.52,22.155,22.155,0,0,1-1.6,8.56,18.631,18.631,0,0,1-4.6,6.6,21.013,21.013,0,0,1-7.32,4.279,29.69,29.69,0,0,1-9.84,1.52,31.1,31.1,0,0,1-11.24-1.8,41.435,41.435,0,0,1-7.84-3.96,64.367,64.367,0,0,1-5.4-3.96A6.4,6.4,0,0,0,225.66,99.38ZM720.94,74.66a10.715,10.715,0,0,1,4.8.841,8.713,8.713,0,0,1,2.96,2.759l29.759,40.96A6.814,6.814,0,0,0,764.7,122.5h13.76L745.02,76.98a16.463,16.463,0,0,0-5.12-4.88,44.144,44.144,0,0,0,11.88-4.48,33.434,33.434,0,0,0,8.88-7.16,30.174,30.174,0,0,0,5.56-9.481,33.148,33.148,0,0,0,1.92-11.36,33.707,33.707,0,0,0-2.48-13.16,25.577,25.577,0,0,0-7.64-10.04,36.039,36.039,0,0,0-13.08-6.359,71.113,71.113,0,0,0-18.8-2.2h-32.4V122.5h15.44V74.66H720.94ZM599.18,7.86h0V122.5H669.82V109.859H614.78V70.74h44.56V58.58H614.78V20.5h55.04V7.86H599.18ZM491.5,33.38l0,0L557.82,119.7a7.816,7.816,0,0,0,2.44,2.16,6.7,6.7,0,0,0,3.08.64h7.84V7.86h-13.6v81.2c0,1.216.027,2.495.08,3.8s.16,2.654.32,4.039l-66.4-86.4a8,8,0,0,0-2.28-2.12,7,7,0,0,0-3.081-.52h-8V122.5h13.6V40.819c0-1.058-.027-2.242-.08-3.52-.055-1.3-.135-2.616-.24-3.916ZM314.54,7.86h0V122.5h15.52V7.86H314.54Zm-180.64,0V122.5h70.64V109.859H149.5V70.74h44.56V58.58H149.5V20.5H204.54V7.86H133.9Zm-120.48,0h0V122.5H56.3a68.868,68.868,0,0,0,12.08-1.03,57.106,57.106,0,0,0,10.96-3.09A54.315,54.315,0,0,0,89,113.41a49.543,49.543,0,0,0,14.78-14.95,55.453,55.453,0,0,0,4.92-9.8,59.078,59.078,0,0,0,3.06-11.14,74.679,74.679,0,0,0,0-24.6,59.081,59.081,0,0,0-3.06-11.14,55.77,55.77,0,0,0-4.92-9.81,50.477,50.477,0,0,0-6.6-8.31A49.665,49.665,0,0,0,89,16.96a53.911,53.911,0,0,0-9.66-4.98A57.105,57.105,0,0,0,68.38,8.89,68.869,68.869,0,0,0,56.3,7.86H13.42ZM56.3,109.939H29.02V20.42H56.3A44.451,44.451,0,0,1,73.02,23.459a34.977,34.977,0,0,1,12.8,8.8A39.975,39.975,0,0,1,93.98,46.34a57.788,57.788,0,0,1,2.88,18.879A57.791,57.791,0,0,1,93.98,84.1a39.553,39.553,0,0,1-8.159,14.04,35.2,35.2,0,0,1-12.8,8.761A44.451,44.451,0,0,1,56.3,109.939ZM725.42,63.38H709.18V20.1h16.96a47.3,47.3,0,0,1,11.71,1.3,23.221,23.221,0,0,1,8.41,3.9,16.34,16.34,0,0,1,5.07,6.46,22.325,22.325,0,0,1,1.69,8.98,23.488,23.488,0,0,1-1.76,9.2,19.322,19.322,0,0,1-5.24,7.16,24.455,24.455,0,0,1-8.64,4.64A39.716,39.716,0,0,1,725.42,63.38Z" transform="translate(0)"/>
</svg>
